# xmcd
#
# Track frame offsets:
#	150
#	13160
#	28805
#	45410
#	62995
#	80935
#	91660
#	106410
#	119410
#	133585
#	148312
#	162305
#	176735
#
# Disc length: 2542 seconds
#
# Revision: 1
# Processed by: cddbd v1.5.2PL0 Copyright (c) Steve Scherf et al.
# Submitted via: dBpowerAMP V4.0
#
DISCID=ba09ec0d
DTITLE=Various Artist - Boogie Woogie - Vol. 1
DYEAR=19
DGENRE=Boogie Woogie
TTITLE0=Albert Ammons - Cavalcade Of Boogie
TTITLE1=Albert Ammons - Boogie Woogie Stomp
TTITLE2=Albert Ammons - Boogie Woogie Blues
TTITLE3=Albert Ammons - Suitcase Blues
TTITLE4=Albert Ammons - Chicago In Mind
TTITLE5=Albert Ammons - Shout For Joy
TTITLE6=Charles Avery - Deerborn Street Breakdown
TTITLE7=Henry Brown - Henry Brown Blues
TTITLE8=Henry Brown - Deep Morgan Blues
TTITLE9=Henry Brown - Eastern Chimes Blues
TTITLE10=Cow Cow Davenport - Slow Drag
TTITLE11=Cow Cow Davenport - Chimes Blues
TTITLE12=Cow Cow Davenport - Atlanta Rag
EXTD=
EXTT0=
EXTT1=
EXTT2=
EXTT3=
EXTT4=
EXTT5=
EXTT6=
EXTT7=
EXTT8=
EXTT9=
EXTT10=
EXTT11=
EXTT12=
PLAYORDER=
